<svg xmlns="http://www.w3.org/2000/svg" width="76.766" height="76.765" viewBox="0 0 76.766 76.765">
  <path id="Icon_awesome-phone-alt" data-name="Icon awesome-phone-alt" d="M74.576,54.246l-16.793-7.2a3.6,3.6,0,0,0-4.2,1.035l-7.437,9.086A55.575,55.575,0,0,1,19.581,30.6l9.086-7.437a3.589,3.589,0,0,0,1.035-4.2l-7.2-16.793A3.622,3.622,0,0,0,18.382.091L2.789,3.689A3.6,3.6,0,0,0,0,7.2a69.562,69.562,0,0,0,69.57,69.57,3.6,3.6,0,0,0,3.508-2.789l3.6-15.593a3.642,3.642,0,0,0-2.1-4.138Z" transform="translate(0 0)" fill="#582900"/>
</svg>
